<svg width="40" height="40" viewBox="0 0 40 40" fill="none" xmlns="http://www.w3.org/2000/svg">
<path fill-rule="evenodd" clip-rule="evenodd" d="M10.3732 11.219C12.7717 8.62095 15.8868 6.99094 19.9631 6.99094C26.484 6.99094 30.1478 11.3272 32.1715 15.6923C33.9503 19.5292 34.5971 23.6568 34.8842 25.4882C34.9216 25.7273 34.953 25.9272 34.9799 26.0823C35.0207 26.3177 34.9991 26.5596 34.9172 26.784C34.1812 28.7991 32.3266 30.2699 30.1936 31.2504C28.0242 32.2477 25.3541 32.8417 22.6154 32.9787C17.2276 33.2482 11.0211 31.7533 7.8287 27.31C7.27943 26.5455 7.56858 26.2514 7.67626 25.9919L7.67937 25.9845C7.68119 25.9801 7.68373 25.974 7.68698 25.9662C7.69348 25.9507 7.70281 25.9285 7.71486 25.9001C7.73896 25.8432 7.77396 25.7614 7.81891 25.6583C7.90875 25.4522 8.03869 25.1601 8.20118 24.8111C8.52489 24.1159 8.98372 23.1821 9.5173 22.2479C10.0435 21.3266 10.676 20.3449 11.3559 19.5907C11.6955 19.214 12.0881 18.8474 12.5279 18.5776C12.9649 18.3096 13.548 18.0778 14.2169 18.1471C15.9034 18.3219 16.9962 19.6217 17.6232 20.3676L17.6368 20.3837C17.6873 20.4437 17.7352 20.5009 17.7808 20.5554C18.068 20.8982 18.2671 21.1358 18.4599 21.3125C18.4989 21.2731 18.5424 21.2271 18.5902 21.1737C18.8998 20.828 19.2673 20.3138 19.6597 19.6895C20.4383 18.4506 21.207 16.9519 21.6742 15.9519C21.9926 15.2703 22.8023 14.9763 23.4827 15.2953C24.1632 15.6143 24.4566 16.4255 24.1382 17.1071C23.6408 18.1717 22.8192 19.7774 21.9619 21.1415C21.5363 21.8187 21.0743 22.4808 20.6155 22.9933C20.3869 23.2486 20.1275 23.5028 19.8436 23.7055C19.5795 23.8941 19.1657 24.1317 18.6484 24.1585C17.7523 24.2049 17.0812 23.7341 16.6649 23.3607C16.3075 23.0402 15.9614 22.6251 15.6811 22.289C15.6378 22.237 15.5961 22.187 15.5561 22.1395C14.8654 21.318 14.4369 20.9451 14.0087 20.8681C13.9937 20.8756 13.9736 20.8864 13.9484 20.9019C13.8126 20.9852 13.6185 21.1471 13.3749 21.4173C12.8886 21.9568 12.3695 22.7419 11.8786 23.6014C11.3951 24.4479 10.9713 25.3088 10.6667 25.9631C10.6088 26.0874 10.5554 26.2038 10.507 26.3107C13.0512 29.2261 17.7753 30.4921 22.4797 30.2568C24.9408 30.1337 27.2604 29.6003 29.0589 28.7735C30.7167 28.0114 31.7678 27.0806 32.2332 26.1467C32.22 26.0642 32.2062 25.9771 32.1917 25.8855C31.8949 24.0129 31.3057 20.295 29.7041 16.8402C27.8944 12.9365 24.9672 9.71624 19.9631 9.71624C16.7188 9.71624 14.3063 10.9726 12.3705 13.0694C10.3903 15.2144 8.89484 18.2599 7.6434 21.814C7.3935 22.5237 6.61659 22.8961 5.90813 22.6457C5.19967 22.3954 4.82793 21.6171 5.07784 20.9074C6.37377 17.227 8.01921 13.769 10.3732 11.219Z" fill="#737885"/>
</svg>
