<svg width="40" height="40" viewBox="0 0 40 40" fill="none" xmlns="http://www.w3.org/2000/svg">
<path d="M20 5C11.72 5 5 11.72 5 20C5 28.28 11.72 35 20 35C28.28 35 35 28.28 35 20C35 11.72 28.28 5 20 5ZM20 31.04C13.88 31.04 8.96 26.12 8.96 20C8.96 13.88 13.88 8.96 20 8.96C26.12 8.96 31.04 13.88 31.04 20C31.04 26.12 26.12 31.04 20 31.04Z" fill="#F12E45"/>
<path d="M23.72 19.4C25.4431 19.4 26.84 18.0031 26.84 16.28C26.84 14.5569 25.4431 13.16 23.72 13.16C21.9969 13.16 20.6 14.5569 20.6 16.28C20.6 18.0031 21.9969 19.4 23.72 19.4Z" fill="#F12E45"/>
<path d="M23.72 26.84C25.4431 26.84 26.84 25.4431 26.84 23.72C26.84 21.9969 25.4431 20.6 23.72 20.6C21.9969 20.6 20.6 21.9969 20.6 23.72C20.6 25.4431 21.9969 26.84 23.72 26.84Z" fill="#F12E45"/>
<path d="M16.28 26.84C18.0031 26.84 19.4 25.4431 19.4 23.72C19.4 21.9969 18.0031 20.6 16.28 20.6C14.5569 20.6 13.16 21.9969 13.16 23.72C13.16 25.4431 14.5569 26.84 16.28 26.84Z" fill="#F12E45"/>
<path d="M16.28 19.4C18.0031 19.4 19.4 18.0031 19.4 16.28C19.4 14.5569 18.0031 13.16 16.28 13.16C14.5569 13.16 13.16 14.5569 13.16 16.28C13.16 18.0031 14.5569 19.4 16.28 19.4Z" fill="#F12E45"/>
</svg>
