<svg width="40" height="40" viewBox="0 0 40 40" fill="none" xmlns="http://www.w3.org/2000/svg">
<path d="M30.7625 5H9.23751C7.73751 5 6.53751 6.2 6.53751 7.7V32.3C6.53751 33.8 7.73751 35 9.23751 35H30.7625C32.2625 35 33.4625 33.8 33.4625 32.3V7.7C33.4625 6.2 32.2625 5 30.7625 5ZM31.9625 32.3C31.9625 32.975 31.4375 33.5 30.7625 33.5H9.23751C8.56251 33.5 8.03751 32.975 8.03751 32.3V7.7C8.03751 7.025 8.56251 6.5 9.23751 6.5H30.7625C31.4375 6.5 31.9625 7.025 31.9625 7.7V32.3ZM13.2875 30.5L16.6625 27.5L13.2875 24.5V30.5ZM25.4375 18.35C24.8375 17.75 23.7125 17 21.8375 17C19.8125 17 17.7125 17.525 16.2125 18.05V9.5H13.2125V22.475L15.3125 21.5C15.3125 21.5 18.7625 19.925 21.7625 19.925C23.2625 19.925 23.6375 20.75 23.6375 21.5V30.5H26.6375V21.5C26.7125 21.275 26.7125 19.625 25.4375 18.35ZM21.4625 14.375H24.4625C25.8125 12.8 26.4875 11.225 26.7125 9.5H23.7125C23.4125 11.225 22.6625 12.8 21.4625 14.375Z" fill="#430098"/>
</svg>
