<svg width="40" height="40" viewBox="0 0 40 40" fill="none" xmlns="http://www.w3.org/2000/svg">
<path d="M13.9037 18.8433C13.8146 18.7266 13.6968 18.6349 13.5619 18.5771C13.4269 18.5192 13.2793 18.4972 13.1334 18.5132C12.9874 18.5291 12.8481 18.5825 12.7288 18.6682C12.6095 18.7538 12.5144 18.8688 12.4527 19.002L5.09342 33.7206C5.02619 33.8545 4.99432 34.0035 5.00083 34.1532C5.00733 34.303 5.052 34.4486 5.13058 34.5762C5.20917 34.7039 5.31907 34.8093 5.44985 34.8826C5.58063 34.9558 5.72796 34.9944 5.87786 34.9947H16.1255C16.2914 34.9979 16.4546 34.9523 16.5948 34.8637C16.735 34.775 16.8462 34.6471 16.9145 34.4959C19.1227 29.9616 17.7851 22.9923 13.9037 18.8433Z" fill="url(#paint0_linear_3478_214)"/>
<path d="M19.3041 5.47607C17.4695 8.29835 16.4004 11.5492 16.2016 14.9095C16.0029 18.2697 16.6814 21.6239 18.1705 24.6428L23.1356 34.4959C23.208 34.6423 23.3197 34.7657 23.4583 34.8522C23.5968 34.9387 23.7567 34.9849 23.9201 34.9856H34.1677C34.3113 34.9738 34.4501 34.9279 34.5724 34.8517C34.6948 34.7755 34.7972 34.6713 34.8713 34.5476C34.9453 34.4239 34.9888 34.2844 34.9981 34.1406C35.0074 33.9967 34.9823 33.8528 34.9249 33.7206L20.8004 5.47607C20.7328 5.33504 20.6266 5.21601 20.4943 5.13269C20.3619 5.04937 20.2087 5.00516 20.0522 5.00516C19.8958 5.00516 19.7426 5.04937 19.6102 5.13269C19.4779 5.21601 19.3717 5.33504 19.3041 5.47607Z" fill="#2684FF"/>
<defs>
<linearGradient id="paint0_linear_3478_214" x1="34.9097" y1="9.74721" x2="22.6222" y2="36.8014" gradientUnits="userSpaceOnUse">
<stop stop-color="#0052CC"/>
<stop offset="0.92" stop-color="#2684FF"/>
</linearGradient>
</defs>
</svg>
