<svg width="10" height="40" viewBox="0 0 10 40" fill="none" xmlns="http://www.w3.org/2000/svg">
<path d="M-5.4646 17.0224C-3.68584 18.8066 -2.23101 21.7281 -3.06356 23.464C-5.28985 28.1059 -21.9025 36.248 -23.3133 34.8383C-24.7241 33.43 -16.5634 16.8409 -11.9119 14.6171C-10.1729 13.786 -7.2462 15.2383 -5.45749 17.0139C-5.45749 17.0139 -5.46033 17.0182 -5.4646 17.0224Z" fill="#FF8200"/>
<path d="M3.33685 15.0624C3.04844 13.9945 2.31108 12.9152 1.21001 12.7876C-0.808849 12.5536 -3.98987 16.1162 -3.76255 16.9614C-3.53524 17.8067 0.959965 19.2973 2.63785 18.0932C3.50308 17.472 3.621 16.1304 3.33685 15.0624ZM-2.91011 5.19295C-1.41124 5.59856 0.104687 6.62962 0.283699 8.16982C0.613308 10.9949 -4.39052 15.4482 -5.57825 15.1305C-6.76599 14.8128 -8.85873 8.52154 -7.16663 6.17153C-6.2943 4.96036 -4.41183 4.79584 -2.91011 5.19295Z" fill="#43B02A"/>
</svg>
