<svg width="55" height="56" viewBox="0 0 55 56" fill="none" xmlns="http://www.w3.org/2000/svg">
<path fill-rule="evenodd" clip-rule="evenodd" d="M39.8658 29.1396C34.8211 29.1396 30.7316 33.222 30.7316 38.2581C30.7316 43.2939 34.8211 47.3764 39.8658 47.3764C44.9106 47.3764 49 43.2939 49 38.2581C49 33.222 44.9106 29.1396 39.8658 29.1396ZM16.1342 29.1403C11.0896 29.1403 7 33.222 7 38.2581C7 43.2939 11.0896 47.3764 16.1342 47.3764C21.1791 47.3764 25.2689 43.2939 25.2689 38.2581C25.2689 33.222 21.1791 29.1403 16.1342 29.1403ZM37.1341 17.7416C37.1341 22.7778 33.0447 26.8606 28.0001 26.8606C22.9552 26.8606 18.8658 22.7778 18.8658 17.7416C18.8658 12.7064 22.9552 8.62363 28.0001 8.62363C33.0447 8.62363 37.1341 12.7064 37.1341 17.7416Z" fill="#F06A6A"/>
</svg>
