<svg width="72" height="72" viewBox="0 0 72 72" fill="none" xmlns="http://www.w3.org/2000/svg">
<path d="M33.113 13.7767L12.9801 22.1854C11.8606 22.6531 11.8722 24.2585 12.9988 24.7093L33.2155 32.8016C34.9918 33.5126 36.97 33.5126 38.7463 32.8016L58.9634 24.709C60.0896 24.2585 60.1019 22.6534 58.9817 22.1857L38.8494 13.7764C37.0127 13.0093 34.9497 13.0096 33.113 13.7767Z" fill="#FCB400"/>
<path d="M37.7747 37.2201V57.436C37.7747 58.3973 38.7353 59.056 39.6207 58.7017L62.1484 49.8755C62.3997 49.775 62.6152 49.6006 62.767 49.3749C62.9189 49.1492 63.0001 48.8827 63 48.6099V28.3943C63 27.4327 62.0394 26.7744 61.154 27.1287L38.6263 35.9548C38.3751 36.0554 38.1596 36.2298 38.0078 36.4555C37.856 36.6812 37.7748 36.9473 37.7747 37.2201Z" fill="#18BFFF"/>
<path d="M32.5142 38.2626L25.8284 41.5209L25.1496 41.8521L11.0365 48.6779C10.1422 49.1135 9 48.4554 9 47.4523V28.4783C9 28.1153 9.18436 27.802 9.43159 27.5663C9.53302 27.4644 9.64809 27.3773 9.77345 27.3075C10.1104 27.1033 10.5915 27.0487 11.0005 27.212L32.4018 35.7714C33.4897 36.207 33.5751 37.7453 32.5142 38.2626Z" fill="#F82B60"/>
<path d="M32.5142 38.2626L25.8284 41.5209L9.43159 27.5663C9.53302 27.4644 9.64809 27.3773 9.77345 27.3075C10.1104 27.1033 10.5915 27.0487 11.0005 27.212L32.4018 35.7714C33.4897 36.207 33.5751 37.7453 32.5142 38.2626Z" fill="black" fill-opacity="0.25"/>
</svg>
