<svg width="72" height="72" viewBox="0 0 72 72" fill="none" xmlns="http://www.w3.org/2000/svg">
<path d="M46.8224 9L44.3265 32.7994L40.0712 12.734L26.6506 15.5653L30.865 35.6307L11.5524 39.734L14.9894 55.7371L48.991 63L56.7651 45.5608L60.4476 10.4362L46.8224 9ZM36.0614 43.5502C35.3658 44.2067 34.4656 44.1246 33.4427 43.7964C32.4607 43.4681 32.0515 42.3191 32.3789 40.8419C32.6653 39.7751 33.9337 39.6109 34.6293 39.6109C34.8748 39.6109 35.1203 39.652 35.3658 39.7751C35.8159 39.9802 36.5933 40.4316 36.7569 41.0882C37.0024 42.073 36.757 42.8936 36.0614 43.5502ZM45.9223 44.617C45.3903 45.5198 44.081 45.6429 42.7308 44.9863C41.8306 44.535 41.8306 43.4681 41.9534 42.7705C41.9943 42.4012 42.1579 42.0319 42.4034 41.7447C42.7308 41.3344 43.2627 40.8009 43.8355 40.8009C44.8584 40.7599 45.6768 41.2112 46.1678 42.0319C46.6587 42.8526 46.4132 43.7553 45.9223 44.617Z" fill="#00CCBC"/>
</svg>
