<svg width="56" height="56" viewBox="0 0 56 56" fill="none" xmlns="http://www.w3.org/2000/svg">
<path d="M28 41.2467C28.4408 41.2467 28.8607 41.1419 29.2595 40.9109L33.8571 38.2657C34.7808 37.7408 35.8515 37.51 36.9221 37.6359C42.5063 38.2867 46.4111 39.3364 47.5657 39.6724C47.7967 39.7353 48.0695 39.6514 48.2165 39.4623C48.4055 39.2314 48.6364 38.8536 48.8253 38.3078C48.9933 37.7829 49.0142 37.342 48.9933 37.0271C48.9723 36.7752 48.8044 36.5443 48.5525 36.4813C46.747 35.9564 38.7486 33.7941 28 33.7941C17.2515 33.7941 9.25293 35.9565 7.44758 36.4813C7.19565 36.5443 7.02767 36.7752 7.00674 37.0272C6.9857 37.321 7.00674 37.762 7.17462 38.3078C7.3425 38.8536 7.59453 39.2314 7.78345 39.4623C7.93039 39.6514 8.20336 39.7353 8.43425 39.6723C9.5889 39.3364 13.5146 38.2867 19.0778 37.6359C20.1484 37.51 21.2192 37.7409 22.1428 38.2657L26.7404 40.9109C27.1393 41.1419 27.5801 41.2467 28 41.2467ZM20.3375 26.3626C20.5894 26.8033 20.9883 27.0973 21.45 27.2232C21.9118 27.3492 22.3947 27.2862 22.8356 27.0343C23.2764 26.7824 23.5704 26.3835 23.6963 25.9216C23.8223 25.4598 23.7593 24.977 23.5074 24.5361L19.3717 17.3774C19.2458 17.1465 18.9729 17.0626 18.7209 17.0835C18.3851 17.1045 17.9232 17.2724 17.3774 17.5874C16.8315 17.9023 16.4537 18.2171 16.2648 18.4901C16.1177 18.7 16.0758 18.9729 16.2017 19.2038L20.3375 26.3626ZM16.5587 31.4849C16.9994 31.7369 17.5033 31.7788 17.9442 31.6739C18.406 31.5478 18.8049 31.254 19.0568 30.8131C19.3087 30.3723 19.3508 29.8685 19.2458 29.4276C19.1408 28.9866 18.8259 28.5668 18.3851 28.3149L11.2264 24.1792C10.9954 24.0533 10.7225 24.0953 10.5126 24.2423C10.2397 24.4311 9.92477 24.8091 9.60983 25.3549C9.2949 25.9007 9.12702 26.3626 9.10598 26.6985C9.08494 26.9713 9.19003 27.2233 9.39988 27.3493L16.5587 31.4849ZM29.8264 23.8224C29.8264 24.3262 29.6164 24.788 29.3015 25.1239C28.9656 25.4599 28.5248 25.6488 28 25.6488C27.4962 25.6488 27.0344 25.4388 26.6984 25.1239C26.3626 24.788 26.1735 24.3472 26.1735 23.8224V15.5719C26.1735 15.2991 26.3415 15.0891 26.5934 14.9842C26.8873 14.8372 27.3702 14.7533 28 14.7533C28.6299 14.7533 29.1126 14.8372 29.4065 14.9842C29.6375 15.1102 29.8264 15.2991 29.8264 15.5719V23.8224ZM35.6626 26.3626C35.4106 26.8033 35.0118 27.0973 34.5499 27.2232C34.088 27.3492 33.6052 27.2862 33.1643 27.0343C32.7235 26.7824 32.4296 26.3835 32.3036 25.9216C32.1776 25.4598 32.2406 24.977 32.4925 24.5361L36.6282 17.3774C36.7542 17.1465 37.0271 17.0626 37.279 17.0835C37.6149 17.1045 38.0767 17.2724 38.6226 17.5874C39.1684 17.9023 39.5463 18.2171 39.7353 18.4901C39.8822 18.7 39.9242 18.9729 39.7983 19.2038L35.6626 26.3626ZM39.4414 31.4849C39.0005 31.7369 38.4967 31.7788 38.0558 31.6739C37.5939 31.5478 37.1951 31.254 36.9431 30.8131C36.6912 30.3723 36.6492 29.8685 36.7542 29.4276C36.8801 28.9658 37.174 28.5668 37.6149 28.3149L44.7737 24.1792C45.0046 24.0533 45.2775 24.0953 45.4874 24.2423C45.7603 24.4311 46.0752 24.8091 46.3901 25.3549C46.705 25.9007 46.8729 26.3626 46.894 26.6985C46.915 26.9713 46.81 27.2233 46.6001 27.3493L39.4414 31.4849Z" fill="#0770E3"/>
</svg>
