<svg width="56" height="56" viewBox="0 0 56 56" fill="none" xmlns="http://www.w3.org/2000/svg">
<path d="M48.9868 27.1267C49.0453 28.2749 48.9088 29.4036 48.5773 30.5129C48.2653 31.6027 47.7779 32.6535 47.1344 33.5877C46.491 34.5412 45.6915 35.378 44.7751 36.0591L44.7556 36.0786L36.0008 42.6368L31.6721 45.9062L29.0593 47.8912C28.9033 48.0079 28.7343 48.0923 28.5523 48.1442C28.3704 48.209 28.1819 48.2415 27.9869 48.2415C27.7919 48.2415 27.6034 48.209 27.4214 48.1442C27.2394 48.0923 27.077 48.0079 26.934 47.8912L24.3017 45.9062L19.9925 42.6368L11.2962 36.1175L11.2572 36.0786L11.2182 36.0591C10.3212 35.378 9.52181 34.5412 8.87836 33.5877C8.21541 32.6535 7.72794 31.6027 7.41597 30.5129C7.10399 29.4036 6.9675 28.2749 7.0065 27.1267C7.065 25.9786 7.29898 24.8499 7.70845 23.7795L7.76694 23.6433L13.48 8.71704C13.506 8.6392 13.5385 8.56784 13.5775 8.50298C13.6165 8.43811 13.662 8.37324 13.714 8.30837C13.766 8.2435 13.818 8.18512 13.87 8.13322C13.935 8.08133 14 8.03592 14.065 7.997C14.2599 7.88024 14.4939 7.80239 14.7279 7.76347C14.9619 7.74401 15.1959 7.78293 15.4104 7.86078C15.6443 7.93862 15.8393 8.07484 15.9953 8.24999C16.1513 8.42513 16.2683 8.6392 16.3268 8.87273L20.1875 20.6853H35.8058L39.6665 8.87273C39.7445 8.6392 39.842 8.42513 40.0175 8.24999C40.1735 8.07484 40.3684 7.93862 40.5829 7.86078C40.8169 7.78293 41.0509 7.74401 41.2849 7.76347C41.5189 7.80239 41.7333 7.88024 41.9478 7.997C42.0128 8.03592 42.0713 8.08133 42.1233 8.13322C42.1883 8.18512 42.2468 8.2435 42.2988 8.30837L42.4158 8.50298C42.4548 8.56784 42.4938 8.6392 42.5328 8.71704L48.2458 23.6238L48.3043 23.7795C48.7138 24.8499 48.9478 25.9786 48.9868 27.1267Z" fill="#E24329"/>
<path d="M48.9868 27.1267C49.0453 28.2749 48.9087 29.4038 48.5967 30.513C48.2653 31.6028 47.7779 32.6535 47.1344 33.5877C46.491 34.5412 45.6915 35.378 44.7751 36.0591L44.7556 36.0786L36.0008 42.6368L28.0063 36.5847L40.5634 27.088C41.1223 26.6598 41.7073 26.2706 42.3182 25.9203C42.9292 25.5571 43.5596 25.2327 44.2096 24.9473C44.8595 24.6489 45.5225 24.3894 46.1984 24.1689C46.8614 23.9483 47.5439 23.7666 48.2458 23.6238L48.3043 23.7795C48.7138 24.8499 48.9478 25.9786 48.9868 27.1267Z" fill="#FC6D26"/>
<path d="M28.0063 36.5847L36.0008 42.6368L31.6721 45.9062L29.0593 47.8912C28.9033 48.0079 28.7343 48.0923 28.5523 48.1442C28.3704 48.209 28.1819 48.2415 27.9869 48.2415C27.7919 48.2415 27.6034 48.209 27.4214 48.1442C27.2394 48.0923 27.077 48.0079 26.934 47.8912L24.3017 45.9062L19.9925 42.6368L28.0063 36.5847Z" fill="#FCA326"/>
<path d="M27.9869 36.5851L19.9925 42.6368L11.2962 36.1175L11.2572 36.0786L11.2182 36.0591C10.3212 35.378 9.52181 34.5412 8.87836 33.5877C8.21541 32.6535 7.72794 31.6027 7.41597 30.5129C7.10399 29.4036 6.9675 28.2749 7.0065 27.1267C7.065 25.9786 7.29898 24.8499 7.70845 23.7795L7.76694 23.6433C8.45589 23.786 9.13834 23.9617 9.81428 24.1692C10.4902 24.3898 11.1532 24.6493 11.8031 24.9477C12.4401 25.2331 13.064 25.5574 13.675 25.9207C14.2859 26.2839 14.8774 26.6732 15.4494 27.0883L27.9869 36.5851Z" fill="#FC6D26"/>
</svg>
